<?xml version="1.0" encoding="UTF-8"?>
<svg width="239px" height="40px" viewBox="0 0 239 40" version="1.1" xmlns="http://www.w3.org/2000/svg" xmlns:xlink="http://www.w3.org/1999/xlink">
    <!-- Generator: Sketch 48.1 (47250) - http://www.bohemiancoding.com/sketch -->
    <title>mp new logo_Chinese_40px Copy</title>
    <desc>Created with Sketch.</desc>
    <defs>
        <linearGradient x1="50.0555556%" y1="94.1503497%" x2="50.0555556%" y2="0.436538462%" id="linearGradient-1">
            <stop stop-color="#78D431" offset="0%"></stop>
            <stop stop-color="#9EEE69" offset="100%"></stop>
            <stop stop-color="#9EEE69" offset="100%"></stop>
        </linearGradient>
        <linearGradient x1="50.0888889%" y1="93.5351252%" x2="50.0888889%" y2="-0.0360587002%" id="linearGradient-2">
            <stop stop-color="#E4E6E6" offset="0%"></stop>
            <stop stop-color="#F5F5FF" offset="100%"></stop>
        </linearGradient>
    </defs>
    <g id="Page-1" stroke="none" stroke-width="1" fill="none" fill-rule="evenodd">
        <g id="mp-new-logo_Chinese_40px-Copy">
            <g id="Group" transform="translate(59.000000, 5.000000)" fill="#4D4D4D">
                <path d="M6.7383,26.9411 L7.6253,28.4651 L7.6653,28.4311 C10.1113,26.3841 10.7813,24.7351 10.7813,20.7591 L10.7813,19.3691 L15.4723,19.3691 L15.4723,22.7881 C15.4573,23.6581 15.3613,24.3171 14.9323,24.9101 L14.9153,24.9331 L15.8613,26.5581 L15.9013,26.5271 C16.7263,25.8641 18.1333,24.6581 20.0823,22.9421 L20.1093,22.9191 L19.3413,21.6011 L19.3013,21.6361 C18.2323,22.5921 17.4993,23.2651 17.0593,23.6941 L16.9923,23.7591 L16.9923,17.8481 L9.1413,17.8481 L9.1413,20.1611 C9.1413,24.4041 8.5693,25.1611 6.7623,26.9171 L6.7383,26.9411 Z" id="Fill-1"></path>
                <path d="M44.487,26.878 L57.54,26.878 L57.54,20.717 L44.487,20.717 L44.487,26.878 Z M42.848,28.398 L59.18,28.398 L59.18,19.197 L42.848,19.197 L42.848,28.398 Z" id="Fill-3"></path>
                <polygon id="Fill-5" points="8.305 10.2821 18.784 10.2821 18.784 3.3871 17.264 3.3871 17.264 8.7621 14.364 8.7621 14.364 1.1171 12.845 1.1171 12.845 8.7621 9.825 8.7621 9.825 3.3871 8.305 3.3871"></polygon>
                <polygon id="Fill-6" points="8.783 14.852 18.067 14.852 18.067 13.331 8.783 13.331"></polygon>
                <path d="M3.885,29.4243 L5.405,29.4243 L5.405,13.6253 L5.411,13.6163 C6.09,12.4073 6.751,11.0503 7.374,9.5833 L7.389,9.5483 L5.921,8.6933 L5.902,8.7403 C4.494,12.2493 2.634,15.3413 0.373,17.9313 L0.352,17.9553 L1.234,19.4693 L1.274,19.4223 C2.145,18.4043 2.999,17.3303 3.814,16.2313 L3.885,16.1343 L3.885,29.4243 Z" id="Fill-7"></path>
                <path d="M24.1186,19.8334 L24.0846,19.7434 C23.0936,17.1574 22.3556,13.6524 21.8916,9.3264 L21.8906,9.3184 L21.8926,9.3104 C22.0426,8.8634 22.2336,8.4044 22.4606,7.9454 L22.4716,7.9234 L26.5776,7.9234 L26.5746,7.9664 C26.2606,12.8874 25.4476,16.8504 24.1576,19.7454 L24.1186,19.8334 Z M18.0656,27.6364 L18.9776,29.2024 L19.0176,29.1654 C21.4096,26.9254 23.0726,24.9594 23.9636,23.3224 L23.9976,23.2604 L24.0326,23.3214 C25.0586,25.1064 26.5636,27.0344 28.5046,29.0524 L28.5446,29.0944 L29.4686,27.5064 L29.4446,27.4824 C27.3426,25.4294 25.8106,23.5024 24.8926,21.7554 L24.8826,21.7364 L24.8926,21.7174 C26.6176,18.5574 27.6956,13.9294 28.0966,7.9604 L28.0986,7.9234 L29.7746,7.9234 L29.7746,6.4034 L22.9816,6.4034 L22.9986,6.3514 C23.5256,4.7564 24.0846,2.7994 24.5746,0.8434 L24.5886,0.7894 L22.8886,0.7894 L22.8816,0.8244 C21.8626,5.4944 20.3096,9.6074 18.3896,12.7184 L18.3756,12.7404 L19.3466,14.4084 L20.0916,12.9214 C20.3346,12.4944 20.5336,12.1334 20.6846,11.8454 L20.7446,11.7324 L20.7596,11.8594 C21.2386,15.9174 22.0666,19.1934 23.2216,21.5964 L23.2306,21.6154 L23.2196,21.6334 C22.0946,23.5714 20.3696,25.5834 18.0926,27.6124 L18.0656,27.6364 Z" id="Fill-8"></path>
                <path d="M36.1584,29.3382 L37.7984,29.3382 L37.8024,8.1542 C38.7664,6.0742 39.6094,3.8712 40.3074,1.6042 L40.3174,1.5712 L38.8004,0.6892 L38.7854,0.7422 C37.2814,6.0422 35.1154,10.7762 32.3474,14.8112 L32.3314,14.8342 L33.2334,16.3832 L33.2724,16.3262 C34.2134,14.9342 35.1594,13.3722 36.0844,11.6852 L36.1584,11.5492 L36.1584,29.3382 Z" id="Fill-9"></path>
                <polygon id="Fill-10" points="42.489 15.96 59.538 15.96 59.538 14.32 42.489 14.32"></polygon>
                <polygon id="Fill-11" points="42.489 11.063 59.538 11.063 59.538 9.542 42.489 9.542"></polygon>
                <path d="M0.7678,8.3526 L1.6918,9.9386 L1.7308,9.8976 C4.0858,7.5346 6.0398,4.7816 7.5378,1.7136 L7.5558,1.6776 L6.1378,0.8516 L6.1178,0.8936 C4.6508,3.8846 2.8588,6.3856 0.7928,8.3286 L0.7678,8.3526 Z" id="Fill-12"></path>
                <path d="M40.8171,6.2849 L61.3301,6.2849 L61.3301,4.6449 L51.2981,4.6449 L52.3951,4.0109 L50.7851,0.5759 L49.2851,1.4419 L49.3051,1.4789 C49.8331,2.4719 50.3151,3.4379 50.7361,4.3499 C50.7841,4.4469 50.8171,4.5289 50.8351,4.5939 L50.8491,4.6449 L40.8171,4.6449 L40.8171,6.2849 Z" id="Fill-13"></path>
                <path d="M152.7924,12.0034 L175.0824,12.0034 L175.0944,12.0154 C175.4504,12.3844 175.7414,12.7574 176.0224,13.1184 L176.0294,13.1264 C176.2724,13.4374 176.5204,13.7554 176.8084,14.0704 L176.8324,14.0964 L178.3184,13.2154 L178.2824,13.1764 C176.5614,11.3044 172.1074,6.3194 171.0144,5.0564 L170.9914,5.0294 L169.5734,5.8314 L169.6124,5.8714 C170.1824,6.4744 173.4754,10.2234 173.6144,10.3824 L173.6724,10.4484 L155.1854,10.4484 L155.2634,10.3794 C158.6174,7.3894 160.9764,5.0674 163.4024,2.3654 L163.4384,2.3254 L162.0144,1.4964 L161.9904,1.5234 C159.2804,4.5644 156.3634,7.3754 152.8084,10.3694 L152.7924,10.3824 L152.7924,12.0034 Z" id="Fill-14"></path>
                <path d="M94.5112,12.1317 L95.3572,13.6177 L95.3932,13.6007 C100.9762,10.9957 105.1382,7.9237 108.1192,4.2087 L108.1492,4.1717 L108.1802,4.2077 C111.1992,7.7527 115.0962,10.3357 121.2102,12.8437 L121.2452,12.8587 L122.0242,11.5217 L121.9772,11.5037 C116.2382,9.2397 112.0242,6.4687 109.0932,3.0327 L109.0712,3.0067 L109.0932,2.9807 C109.2852,2.7537 109.6042,2.3407 109.7572,2.1107 L109.7822,2.0717 L108.3332,1.2287 L108.3102,1.2607 C104.6992,6.1717 100.3282,9.6197 94.5562,12.1127 L94.5112,12.1317 Z" id="Fill-15"></path>
                <path d="M140.9672,14.0793 L142.4062,14.9173 L142.4302,14.8893 C142.5892,14.6973 142.7862,14.4833 143.0132,14.2363 L143.0332,14.2143 C143.3482,13.8703 143.7062,13.4803 144.1072,13.0003 C145.9492,10.6773 146.7402,9.6613 147.5052,8.5903 L147.5332,8.5513 L146.1352,7.7373 L146.1122,7.7713 C144.8352,9.6363 143.5032,11.2123 141.0022,14.0393 L140.9672,14.0793 Z" id="Fill-16"></path>
                <polygon id="Fill-17" points="136.0704 29.1805 137.6964 29.1805 137.6964 19.0255 150.8584 19.0255 150.8584 17.4455 137.6964 17.4455 137.6964 4.6615 149.5714 4.6615 149.5714 3.0295 124.3134 3.0295 124.3134 4.6615 136.0704 4.6615 136.0704 17.4455 122.9084 17.4455 122.9084 19.0255 136.0704 19.0255"></polygon>
                <path d="M126.6243,8.5304 L126.6553,8.5694 C128.3473,10.7264 129.5693,12.3564 131.1743,14.7954 L131.1973,14.8294 L132.6513,13.9904 L132.6223,13.9514 C132.0113,13.1174 131.4663,12.3494 130.9853,11.6704 C130.0673,10.3764 129.2043,9.1594 128.0763,7.7354 L128.0533,7.7064 L126.6243,8.5304 Z" id="Fill-18"></path>
                <path d="M173.3272,27.2432 L156.3122,27.2432 L156.3122,27.2032 L156.2972,18.1262 L173.3272,18.1262 L173.3272,27.2432 Z M154.6862,28.7492 L174.9382,28.7492 L174.9382,16.5902 L154.6862,16.5902 L154.6862,28.7492 Z" id="Fill-19"></path>
                <path d="M64.9365,14.9206 L65.7955,16.3956 L65.8355,16.3626 C70.0145,12.8626 73.3395,8.5836 75.7185,3.6456 L75.7355,3.6096 L74.3255,2.7886 L74.3055,2.8306 C71.7965,7.9486 68.8285,11.7826 64.9655,14.8976 L64.9365,14.9206 Z" id="Fill-20"></path>
                <path d="M81.3151,3.1547 L81.3281,3.1897 C83.2051,8.1577 86.5521,12.3507 91.2761,15.6497 L91.3151,15.6767 L92.1751,14.1997 L92.1401,14.1777 C87.5391,11.2297 84.8381,7.8017 82.8191,2.3457 L82.8011,2.2967 L81.3151,3.1547 Z" id="Fill-21"></path>
                <path d="M86.9596,26.4751 L86.9716,26.4901 C87.9356,27.6531 88.6006,28.4491 89.0046,28.9231 L89.0276,28.9501 L90.5456,28.0751 L82.8266,19.1171 L81.4616,19.9061 L81.4946,19.9461 C82.0396,20.6031 82.7606,21.4521 83.4586,22.2741 L83.5796,22.4161 C84.3156,23.2821 85.1506,24.2631 85.6166,24.8351 L85.6656,24.8961 L85.5876,24.9001 C83.1226,25.0201 72.6466,25.5241 70.2666,25.6181 L70.1776,25.6211 L70.2346,25.5531 C72.7736,22.4921 75.5116,18.7701 78.6056,14.1741 L78.6316,14.1351 L77.1246,13.2571 L77.1036,13.2941 C74.5066,17.5751 71.9626,21.0861 69.0956,24.3421 L68.9516,24.5071 C68.4756,25.0561 68.0256,25.5761 67.2246,26.0181 L67.1856,26.0391 L68.0306,27.4901 L68.0606,27.4841 C68.9906,27.3041 69.6736,27.2251 70.7696,27.1731 L73.2956,27.0521 C78.0826,26.8231 82.6036,26.6071 86.9406,26.4761 L86.9596,26.4751 Z" id="Fill-22"></path>
                <path d="M94.5151,27.5489 L95.3251,28.9399 L95.3641,28.9129 C99.4691,26.0209 101.9581,22.3259 102.7631,17.9299 L102.7771,17.8509 L102.8311,17.9109 C103.9661,19.1679 104.9991,20.3169 105.9881,21.4229 L106.0101,21.4479 L106.0081,21.4499 C106.0201,21.4619 106.0351,21.4789 106.0571,21.5029 C106.1671,21.6429 106.3881,21.8959 106.7891,22.3559 L106.8721,22.4509 L107.7291,20.9779 L107.7071,20.9539 C107.3061,20.5279 106.9251,20.1199 106.5611,19.7309 L106.3021,19.4549 C104.9891,18.0489 103.9521,16.9399 103.1111,16.0969 L103.0991,16.0849 L103.1001,16.0679 C103.1021,15.9849 103.1181,15.7569 103.1391,15.4699 L103.1451,15.3909 C103.1951,14.7079 103.2781,13.5629 103.3281,12.3399 L103.3301,12.2949 L101.7161,12.2949 L101.7161,12.3389 C101.7161,19.5189 99.5051,24.2029 94.5491,27.5259 L94.5151,27.5489 Z" id="Fill-23"></path>
                <path d="M104.5914,28.0119 L105.4034,29.4069 L105.4414,29.3809 C109.8974,26.3339 112.5664,22.6249 113.3734,18.3579 L113.4124,18.1519 L113.4504,18.3579 C114.1894,22.2499 116.7364,25.7979 121.0184,28.9039 L121.0574,28.9319 L121.8734,27.5469 L121.8394,27.5239 C116.8514,24.2229 114.6214,20.2579 114.1414,13.8409 C114.1414,13.5969 114.1374,13.3589 114.1334,13.0959 C114.1294,12.8679 114.1254,12.6219 114.1234,12.3379 L114.1234,12.2949 L112.4824,12.2949 L112.4834,12.3389 C112.6064,19.5229 109.9634,24.7889 104.6284,27.9899 L104.5914,28.0119 Z" id="Fill-24"></path>
            </g>
            <g id="Full-Emblem-1-Copy">
                <g id="symbol">
                    <path d="M0,14.8739749 C0,19.3361674 2.43272049,23.4127383 6.19237943,26.1120893 C6.52411404,26.3324445 6.68998135,26.6629773 6.68998135,27.1036877 C6.68998135,27.2138653 6.63469225,27.3791317 6.63469225,27.4893093 C6.35824674,28.5910852 5.86064482,30.4090154 5.80535572,30.4641042 C5.75006661,30.6293706 5.69477751,30.7395482 5.69477751,30.9048146 C5.69477751,31.2353474 5.97122302,31.5107914 6.30295763,31.5107914 C6.41353584,31.5107914 6.52411404,31.4557026 6.63469225,31.4006138 L10.5602185,29.1419731 C10.836664,28.9767067 11.1683986,28.8665292 11.5001332,28.8665292 C11.6660005,28.8665292 11.8871569,28.8665292 12.0530242,28.921618 C13.8775646,29.4725059 15.8679723,29.7479499 17.9136691,29.7479499 C27.8104183,29.7479499 35.8273381,23.0822056 35.8273381,14.8739749 C35.8273381,6.66574433 27.8104183,0 17.9136691,0 C8.0169198,3.91429439e-15 0,6.66574433 0,14.8739749" id="XMLID_140_" fill="url(#linearGradient-1)"></path>
                    <path d="M34.6043165,38.5014253 C36.3141487,38.5014253 37.9688249,38.2794142 39.4580336,37.8353921 C39.5683453,37.7798893 39.7338129,37.7798893 39.8992806,37.7798893 C40.17506,37.7798893 40.4508393,37.8908948 40.6714628,38.0019004 L43.9256595,39.8889945 C44.0359712,39.9444972 44.0911271,40 44.2014388,40 C44.4772182,40 44.6978417,39.7779889 44.6978417,39.5004751 C44.6978417,39.3894696 44.6426859,39.278464 44.6426859,39.1119557 C44.6426859,39.056453 44.2014388,37.5578782 43.9808153,36.6143312 C43.9256595,36.5033256 43.9256595,36.3923201 43.9256595,36.2813146 C43.9256595,35.948298 44.0911271,35.6707841 44.3669065,35.4487731 C47.5107914,33.1731596 49.4964029,29.7874908 49.4964029,26.0133026 C49.4964029,19.1309594 42.822542,13.5251799 34.6043165,13.5251799 C26.3860911,13.5251799 19.7122302,19.0754566 19.7122302,26.0133026 C19.7122302,32.8956457 26.3860911,38.5014253 34.6043165,38.5014253 Z" id="XMLID_137_" fill="url(#linearGradient-2)"></path>
                    <path d="M14.2446043,10.0719424 C14.2446043,11.356868 13.2273716,12.3741007 11.942446,12.3741007 C10.6575205,12.3741007 9.64028777,11.356868 9.64028777,10.0719424 C9.64028777,8.7870169 10.6575205,7.76978417 11.942446,7.76978417 C13.2273716,7.76978417 14.2446043,8.7870169 14.2446043,10.0719424" id="XMLID_135_" fill="#187E28"></path>
                    <path d="M26.1870504,10.0719424 C26.1870504,11.356868 25.1698176,12.3741007 23.8848921,12.3741007 C22.5999665,12.3741007 21.5827338,11.356868 21.5827338,10.0719424 C21.5827338,8.7870169 22.5999665,7.76978417 23.8848921,7.76978417 C25.1698176,7.76978417 26.1870504,8.7870169 26.1870504,10.0719424" id="XMLID_134_" fill="#187E28"></path>
                    <path d="M37.6978417,22.1582734 C37.6978417,23.2773781 38.5931255,24.1726619 39.7122302,24.1726619 C40.8313349,24.1726619 41.7266187,23.2773781 41.7266187,22.1582734 C41.7266187,21.0391687 40.8313349,20.1438849 39.7122302,20.1438849 C38.5931255,20.1438849 37.6978417,21.0391687 37.6978417,22.1582734" id="XMLID_133_" fill="#858C8C"></path>
                    <path d="M27.7697842,22.1582734 C27.7697842,23.2773781 28.6650679,24.1726619 29.7841727,24.1726619 C30.9032774,24.1726619 31.7985612,23.2773781 31.7985612,22.1582734 C31.7985612,21.0391687 30.9032774,20.1438849 29.7841727,20.1438849 C28.6650679,20.1438849 27.7697842,21.0391687 27.7697842,22.1582734" id="XMLID_132_" fill="#858C8C"></path>
                </g>
            </g>
        </g>
    </g>
</svg>