<?xml version="1.0" encoding="UTF-8"?>
<svg width="22px" height="22px" viewBox="0 0 22 22" version="1.1" xmlns="http://www.w3.org/2000/svg" xmlns:xlink="http://www.w3.org/1999/xlink">
    <!-- Generator: Sketch 47.1 (45422) - http://www.bohemiancoding.com/sketch -->
    <title>Icon /  Nav / Function</title>
    <desc>Created with Sketch.</desc>
    <defs></defs>
    <g id="Icon-图标" stroke="none" stroke-width="1" fill="none" fill-rule="evenodd">
        <g id="Artboard" transform="translate(-231.000000, -312.000000)" fill="#9A9A9A">
            <path d="M235,315 L240,315 L240,315 C240.552285,315 241,315.447715 241,316 L241,321 L241,321 C241,321.552285 240.552285,322 240,322 L235,322 L235,322 C234.447715,322 234,321.552285 234,321 L234,316 L234,316 C234,315.447715 234.447715,315 235,315 L235,315 Z M245,315 L250,315 L250,315 C250.552285,315 251,315.447715 251,316 L251,321 L251,321 C251,321.552285 250.552285,322 250,322 L245,322 L245,322 C244.447715,322 244,321.552285 244,321 L244,316 C244,315.447715 244.447715,315 245,315 L245,315 Z M245,325 L250,325 C250.552285,325 251,325.447715 251,326 L251,331 L251,331 C251,331.552285 250.552285,332 250,332 L245,332 C244.447715,332 244,331.552285 244,331 L244,326 C244,325.447715 244.447715,325 245,325 Z M235,325 L240,325 C240.552285,325 241,325.447715 241,326 L241,331 L241,331 C241,331.552285 240.552285,332 240,332 L235,332 C234.447715,332 234,331.552285 234,331 L234,326 L234,326 C234,325.447715 234.447715,325 235,325 L235,325 Z" id="Icon-/--Nav-/-Function"></path>
        </g>
    </g>
</svg>