<?xml version="1.0" encoding="UTF-8"?>
<svg width="22px" height="22px" viewBox="0 0 22 22" version="1.1" xmlns="http://www.w3.org/2000/svg" xmlns:xlink="http://www.w3.org/1999/xlink">
    <!-- Generator: Sketch 47.1 (45422) - http://www.bohemiancoding.com/sketch -->
    <title>Icon /  Nav / Homepage HL</title>
    <desc>Created with Sketch.</desc>
    <defs></defs>
    <g id="Icon-图标" stroke="none" stroke-width="1" fill="none" fill-rule="evenodd">
        <g id="Artboard" transform="translate(-77.000000, -348.000000)" fill="#1AAD19">
            <path d="M96,360 L96,367 C96,367.552285 95.5522847,368 95,368 L81,368 C80.4477153,368 80,367.552285 80,367 L80,360 L78.1366175,360 L78.1366175,360 C77.8604751,360 77.6366175,359.776142 77.6366175,359.5 C77.6366175,359.374904 77.6835101,359.254353 77.7680405,359.162138 L87.2628459,348.804168 L87.2628459,348.804168 C87.6360383,348.397049 88.2686056,348.369546 88.6757246,348.742739 C88.6970813,348.762316 88.7175772,348.782811 88.7371541,348.804168 L88.7371541,348.804168 L98.2319595,359.162138 L98.2319595,359.162138 C98.4185557,359.365697 98.4048043,359.681981 98.2012448,359.868577 C98.1090299,359.953107 97.9884783,360 97.8633825,360 L96,360 Z M86,363 L86,368 L90,368 L90,363 L86,363 Z" id="Icon-/--Nav-/-Homepage-HL"></path>
        </g>
    </g>
</svg>