<?xml version="1.0" encoding="UTF-8"?>
<svg width="22px" height="22px" viewBox="0 0 22 22" version="1.1" xmlns="http://www.w3.org/2000/svg" xmlns:xlink="http://www.w3.org/1999/xlink">
    <!-- Generator: Sketch 47.1 (45422) - http://www.bohemiancoding.com/sketch -->
    <title>Icon /  Nav / Develope</title>
    <desc>Created with Sketch.</desc>
    <defs></defs>
    <g id="Icon-图标" stroke="none" stroke-width="1" fill="none" fill-rule="evenodd">
        <g id="Artboard" transform="translate(-187.000000, -312.000000)" fill="#9A9A9A">
            <path d="M208.845168,323.404317 L208.932563,323.319439 C209.011308,323.242962 209.013486,323.116611 208.933324,323.032942 L202.987341,316.826834 C202.909016,316.745083 202.781039,316.736289 202.696144,316.811962 L201.494213,317.88333 C201.411714,317.956867 201.407168,318.081365 201.488209,318.165722 L206.317323,323.192436 L201.505763,327.773514 C201.434025,327.841815 201.429819,327.973813 201.510787,328.05461 L202.587502,329.129051 C202.675244,329.216607 202.797348,329.214966 202.875358,329.140483 L208.79747,323.486084 C208.820471,323.464123 208.83657,323.435596 208.845168,323.404317 Z M189.682438,323.227697 L194.567655,318.13344 C194.637346,318.060767 194.630674,317.932416 194.545017,317.854829 L193.405945,316.823078 C193.313121,316.739 193.186381,316.7492 193.106858,316.831361 L187.069853,323.068644 C186.988463,323.152733 186.989698,323.279407 187.068442,323.355884 L187.155838,323.440762 C187.164436,323.472042 187.180535,323.500568 187.203536,323.522529 L193.125647,329.176928 C193.203657,329.251412 193.325761,329.253053 193.413503,329.165496 L194.490218,328.091056 C194.571187,328.010258 194.56698,327.87826 194.495243,327.809959 L189.682438,323.227697 Z M198.61333,315.16427 C198.638814,315.05389 198.753901,314.98621 198.847432,315.007803 L200.227862,315.326501 C200.33167,315.350467 200.396188,315.454942 200.369681,315.569756 L196.812595,330.977189 C196.787112,331.087569 196.672024,331.155249 196.578493,331.133656 L195.198063,330.814958 C195.094255,330.790992 195.029737,330.686517 195.056244,330.571703 L198.61333,315.16427 Z" id="Icon-/--Nav-/-Develope"></path>
        </g>
    </g>
</svg>