<?xml version="1.0" encoding="UTF-8"?>
<svg width="22px" height="22px" viewBox="0 0 22 22" version="1.1" xmlns="http://www.w3.org/2000/svg" xmlns:xlink="http://www.w3.org/1999/xlink">
    <!-- Generator: Sketch 47.1 (45422) - http://www.bohemiancoding.com/sketch -->
    <title>Icon /  Nav / Setting</title>
    <desc>Created with Sketch.</desc>
    <defs></defs>
    <g id="Icon-图标" stroke="none" stroke-width="1" fill="none" fill-rule="evenodd">
        <g id="Artboard" transform="translate(-253.000000, -312.000000)" fill="#9A9A9A">
            <path d="M268.421016,330.542336 C267.40118,331.259657 266.230303,331.752193 265,331.928327 L265,333.5 C265,333.776142 264.776142,334 264.5,334 L262.5,334 C262.223858,334 262,333.776142 262,333.5 L262,331.804735 C260.7622,331.557465 259.639128,331.085648 258.672738,330.448582 L257.489592,331.631728 C257.29433,331.82699 256.977748,331.82699 256.782486,331.631728 L255.368272,330.217514 C255.17301,330.022252 255.17301,329.70567 255.368272,329.510408 L256.489093,328.389587 C255.741688,327.377154 255.24844,326.217684 255.072194,325 L253.5,325 C253.223858,325 253,324.776142 253,324.5 L253,322.5 C253,322.223858 253.223858,322 253.5,322 L255.197675,322 C255.446493,320.777437 255.923121,319.666772 256.58713,318.70845 L255.368272,317.489592 C255.17301,317.29433 255.17301,316.977748 255.368272,316.782486 L256.782486,315.368272 C256.977748,315.17301 257.29433,315.17301 257.489592,315.368272 L258.708446,316.587126 C259.666755,315.923121 260.777415,315.446489 262,315.197671 L262,313.5 L262,313.5 C262,313.223858 262.223858,313 262.5,313 L264.5,313 C264.776142,313 265,313.223858 265,313.5 L265,315.072199 C266.217666,315.248454 267.37712,315.741723 268.389542,316.489138 L269.510408,315.368272 C269.70567,315.17301 270.022252,315.17301 270.217514,315.368272 L270.217514,315.368272 L271.631728,316.782486 C271.82699,316.977748 271.82699,317.29433 271.631728,317.489592 L270.448531,318.672789 C271.085608,319.639181 271.557436,320.762242 271.804717,322 L273.5,322 C273.776142,322 274,322.223858 274,322.5 L274,324.5 C274,324.776142 273.776142,325 273.5,325 L271.928327,325 C271.752193,326.230303 271.259657,327.40118 270.542336,328.421016 L271.631728,329.510408 C271.82699,329.70567 271.82699,330.022252 271.631728,330.217514 L270.217514,331.631728 C270.022252,331.82699 269.70567,331.82699 269.510408,331.631728 L268.421016,330.542336 Z M263,317 C259.910227,317 257,319.909932 257,324 C257,327.089773 259.910227,330 263,330 C267.089773,330 270,327.089773 270,324 C270,319.909932 267.089773,317 263,317 Z" id="Icon-/--Nav-/-Setting"></path>
        </g>
    </g>
</svg>