<?xml version="1.0" encoding="UTF-8"?>
<svg width="22px" height="22px" viewBox="0 0 22 22" version="1.1" xmlns="http://www.w3.org/2000/svg" xmlns:xlink="http://www.w3.org/1999/xlink">
    <!-- Generator: Sketch 47.1 (45422) - http://www.bohemiancoding.com/sketch -->
    <title>Icon /  Nav / AD</title>
    <desc>Created with Sketch.</desc>
    <defs></defs>
    <g id="Icon-图标" stroke="none" stroke-width="1" fill="none" fill-rule="evenodd">
        <g id="Artboard" transform="translate(-121.000000, -312.000000)" fill="#9A9A9A">
            <path d="M125,325.001366 L127.549804,325.957542 C127.4838,326.197383 127.485793,326.458745 127.570365,326.712462 L129.185183,331.556914 C129.273657,331.822336 129.522047,332.001366 129.801827,332.001366 L133.098173,332.001366 C133.168037,332.001366 133.237443,331.990103 133.303721,331.96801 C133.644284,331.854489 133.828338,331.486381 133.714817,331.145818 L132.619048,327.858509 L140.546788,330.831411 C140.68823,330.943881 140.83931,331.002849 141,331.002849 C141.00157,331.002849 141.003147,331.002757 141.004732,331.002573 C141.011621,331.003655 141.017788,331.001545 141.023284,330.996442 C141.35908,330.816255 142,326.857996 142,322.001425 C142,317.149249 141.360239,313.193761 141.024197,313.006905 C141.018445,313.001462 141.011941,312.999177 141.004625,313.000264 C141.003076,313.000088 141.001534,313 141,313 C140.839415,313 140.688429,313.058891 140.547067,313.171216 L125,319.001366 C125,318.449081 124.552285,318.001366 124,318.001366 L124,318.001366 L124,318.001366 C123.447715,318.001366 123,318.449081 123,319.001366 L123,325.001366 C123,325.553651 123.447715,326.001366 124,326.001366 C124.552285,326.001366 125,325.553651 125,325.001366 Z" id="Icon-/--Nav-/-AD"></path>
        </g>
    </g>
</svg>